<?xml version="1.0" encoding="UTF-8" standalone="no"?>
<svg
   xmlns:osb="http://www.openswatchbook.org/uri/2009/osb"
   xmlns:dc="http://purl.org/dc/elements/1.1/"
   xmlns:cc="http://creativecommons.org/ns#"
   xmlns:rdf="http://www.w3.org/1999/02/22-rdf-syntax-ns#"
   xmlns:svg="http://www.w3.org/2000/svg"
   xmlns="http://www.w3.org/2000/svg"
   xmlns:xlink="http://www.w3.org/1999/xlink"
   xmlns:sodipodi="http://sodipodi.sourceforge.net/DTD/sodipodi-0.dtd"
   xmlns:inkscape="http://www.inkscape.org/namespaces/inkscape"
   version="1.1"
   id="Layer_1"
   x="0px"
   y="0px"
   width="512"
   height="512"
   viewBox="0 0 512 512"
   enable-background="new 0 0 192 192"
   xml:space="preserve"
   sodipodi:docname="logo-mark.svg"
   inkscape:version="0.92.5 (2060ec1f9f, 2020-04-08)"><metadata
   id="metadata15"><rdf:RDF><cc:Work
       rdf:about=""><dc:format>image/svg+xml</dc:format><dc:type
         rdf:resource="http://purl.org/dc/dcmitype/StillImage" /><dc:title></dc:title></cc:Work></rdf:RDF></metadata><defs
   id="defs13"><linearGradient
     id="linearGradient2306"
     osb:paint="solid"><stop
       style="stop-color:#0029ff;stop-opacity:1;"
       offset="0"
       id="stop2304" /></linearGradient><linearGradient
     inkscape:collect="always"
     xlink:href="#linearGradient2306"
     id="linearGradient2308"
     x1="89.586716"
     y1="139.16011"
     x2="135.47008"
     y2="139.16011"
     gradientUnits="userSpaceOnUse" /></defs><sodipodi:namedview
   pagecolor="#ffffff"
   bordercolor="#666666"
   borderopacity="1"
   objecttolerance="10"
   gridtolerance="10"
   guidetolerance="10"
   inkscape:pageopacity="0"
   inkscape:pageshadow="2"
   inkscape:window-width="2335"
   inkscape:window-height="1937"
   id="namedview11"
   showgrid="false"
   inkscape:zoom="1.2291667"
   inkscape:cx="114.56319"
   inkscape:cy="-102.80251"
   inkscape:window-x="1920"
   inkscape:window-y="27"
   inkscape:window-maximized="0"
   inkscape:current-layer="Layer_1"
   fit-margin-top="5"
   fit-margin-left="5"
   fit-margin-right="5"
   fit-margin-bottom="5" />



<path
   style="opacity:1;fill:#d5f6ff;fill-opacity:1;stroke:none;stroke-width:10.03862858;stroke-linejoin:round;stroke-miterlimit:4;stroke-dasharray:none;stroke-opacity:1"
   d="M 49.838293,137.19588 257.54974,19.35349 465.36573,139.49161 v 202.0244 L 48.116494,348.4032 Z"
   id="rect831"
   inkscape:connector-curvature="0"
   sodipodi:nodetypes="cccccc" /><path
   style="opacity:1;fill:#afe9af;fill-opacity:1;stroke:none;stroke-width:10.03862858;stroke-linejoin:round;stroke-miterlimit:4;stroke-dasharray:none;stroke-opacity:1"
   d="m 47.542561,316.8369 c 0,0 87.374679,-15.48059 131.430639,-14.34832 56.37433,1.44884 110.64111,25.48902 167.01448,26.97485 39.24011,1.03423 117.08234,-12.62653 117.08234,-12.62653 l 1.14787,59.68902 L 252.96844,494.32713 48.116494,378.24772 Z"
   id="rect825"
   inkscape:connector-curvature="0"
   sodipodi:nodetypes="cssccccc" /><path
   d="M 257.38671,507 39.983051,381.50314 V 130.5 L 257.38671,5 474.79035,130.5 V 381.49999 Z M 65.525439,366.75689 257.38671,477.51377 449.24796,366.75689 V 145.24625 L 257.38671,34.48936 65.525439,145.24625 Z"
   id="path8"
   inkscape:connector-curvature="0"
   style="fill:#ffe6d5;stroke-width:3.13750005" />
<g
   aria-label="LB"
   transform="matrix(3.0917146,0,0,3.0917146,-84.676859,-231.03345)"
   style="font-style:normal;font-weight:normal;font-size:40px;line-height:1.25;font-family:sans-serif;letter-spacing:0px;word-spacing:0px;fill:#000000;fill-opacity:1;stroke:#00c2ff;stroke-width:0.91270936;stroke-miterlimit:4;stroke-dasharray:none;stroke-opacity:1"
   id="flowRoot834"><path
     d="M 90.043068,168.98411 H 109.0724 v -11.264 h -1.36533 c 0,9.728 0,9.89867 -3.92534,9.89867 h -7.850662 v -56.91734 h 3.84 v -1.36533 h -9.728 v 1.36533 h 3.84 v 56.91734 h -3.84 z"
     style="font-style:normal;font-variant:normal;font-weight:100;font-stretch:normal;font-size:85.33333588px;font-family:Emberly;-inkscape-font-specification:'Emberly, Thin';font-variant-ligatures:normal;font-variant-caps:normal;font-variant-numeric:normal;font-feature-settings:normal;text-align:start;writing-mode:lr-tb;text-anchor:start;fill:#ffffff;stroke:#00c2ff;stroke-width:0.91270936;stroke-miterlimit:4;stroke-dasharray:none;stroke-opacity:1"
     id="path821" /><path
     d="m 111.71771,168.98411 h 13.056 c 5.46133,0 10.24,-4.52267 10.24,-13.65333 v -4.01067 c 0,-9.64267 -6.4,-13.056 -8.96,-13.056 2.56,-0.0853 8.448,-3.66934 8.448,-10.752 v -5.97334 c 0,-5.71733 -2.816,-12.20266 -9.55733,-12.20266 h -13.22667 v 1.36533 h 3.84 v 57.25867 h -3.84 z m 5.888,-31.40267 v -26.88 h 7.33867 c 5.632,0 7.50933,5.376 7.50933,10.83733 v 5.888 c 0,7.25334 -5.29067,10.15467 -8.53333,10.15467 z m 15.36,17.74934 c 0,8.96 -3.84,12.62933 -8.192,12.62933 h -7.168 v -29.01334 h 6.31467 c 3.24266,0 9.04533,2.56 9.04533,12.37334 z"
     style="font-style:normal;font-variant:normal;font-weight:100;font-stretch:normal;font-size:85.33333588px;font-family:Emberly;-inkscape-font-specification:'Emberly, Thin';font-variant-ligatures:normal;font-variant-caps:normal;font-variant-numeric:normal;font-feature-settings:normal;text-align:start;writing-mode:lr-tb;text-anchor:start;fill:#ffffff;stroke:#00c2ff;stroke-width:0.91270936;stroke-miterlimit:4;stroke-dasharray:none;stroke-opacity:1"
     id="path823" /></g></svg>