<?xml version="1.0" encoding="UTF-8" standalone="no"?>
<svg
   xmlns:osb="http://www.openswatchbook.org/uri/2009/osb"
   xmlns:dc="http://purl.org/dc/elements/1.1/"
   xmlns:cc="http://creativecommons.org/ns#"
   xmlns:rdf="http://www.w3.org/1999/02/22-rdf-syntax-ns#"
   xmlns:svg="http://www.w3.org/2000/svg"
   xmlns="http://www.w3.org/2000/svg"
   xmlns:xlink="http://www.w3.org/1999/xlink"
   xmlns:sodipodi="http://sodipodi.sourceforge.net/DTD/sodipodi-0.dtd"
   xmlns:inkscape="http://www.inkscape.org/namespaces/inkscape"
   version="1.1"
   id="Layer_1"
   x="0px"
   y="0px"
   width="86"
   height="97.744621"
   viewBox="0 0 86 97.744621"
   enable-background="new 0 0 192 192"
   xml:space="preserve"
   sodipodi:docname="logo.svg"
   inkscape:version="0.92.5 (2060ec1f9f, 2020-04-08)"><metadata
   id="metadata15"><rdf:RDF><cc:Work
       rdf:about=""><dc:format>image/svg+xml</dc:format><dc:type
         rdf:resource="http://purl.org/dc/dcmitype/StillImage" /><dc:title></dc:title></cc:Work></rdf:RDF></metadata><defs
   id="defs13"><linearGradient
     id="linearGradient2306"
     osb:paint="solid"><stop
       style="stop-color:#0029ff;stop-opacity:1;"
       offset="0"
       id="stop2304" /></linearGradient><linearGradient
     inkscape:collect="always"
     xlink:href="#linearGradient2306"
     id="linearGradient2308"
     x1="89.586716"
     y1="139.16011"
     x2="135.47008"
     y2="139.16011"
     gradientUnits="userSpaceOnUse" /></defs><sodipodi:namedview
   pagecolor="#ffffff"
   bordercolor="#666666"
   borderopacity="1"
   objecttolerance="10"
   gridtolerance="10"
   guidetolerance="10"
   inkscape:pageopacity="0"
   inkscape:pageshadow="2"
   inkscape:window-width="2335"
   inkscape:window-height="1937"
   id="namedview11"
   showgrid="false"
   inkscape:zoom="1.2291667"
   inkscape:cx="114.56319"
   inkscape:cy="-102.80251"
   inkscape:window-x="1920"
   inkscape:window-y="27"
   inkscape:window-maximized="0"
   inkscape:current-layer="Layer_1"
   fit-margin-top="5"
   fit-margin-left="5"
   fit-margin-right="5"
   fit-margin-bottom="5" />



<path
   style="opacity:1;fill:#d5f6ff;fill-opacity:1;stroke:none;stroke-width:1.75465262;stroke-linejoin:round;stroke-miterlimit:4;stroke-dasharray:none;stroke-opacity:1"
   d="M 6.722599,28.106528 43.028497,7.5088481 79.352669,28.507798 V 63.819659 L 6.421645,65.023471 Z"
   id="rect831"
   inkscape:connector-curvature="0"
   sodipodi:nodetypes="cccccc" /><path
   style="opacity:1;fill:#afe9af;fill-opacity:1;stroke:none;stroke-width:1.75465262;stroke-linejoin:round;stroke-miterlimit:4;stroke-dasharray:none;stroke-opacity:1"
   d="m 6.321327,59.505995 c 0,0 15.272227,-2.705854 22.972772,-2.507944 9.853673,0.253243 19.338968,4.455227 29.192473,4.714936 6.858787,0.180774 20.464837,-2.206992 20.464837,-2.206992 L 79.152039,69.939044 42.227732,90.529525 6.421645,70.239998 Z"
   id="rect825"
   inkscape:connector-curvature="0"
   sodipodi:nodetypes="cssccccc" /><path
   d="M 43.000002,92.744618 5,70.809012 V 26.936154 L 43.000002,5 80.999999,26.936154 V 70.808462 Z M 9.464556,68.231514 43.000002,87.590717 76.535439,68.231514 V 29.513652 L 43.000002,10.154447 9.464556,29.513652 Z"
   id="path8"
   inkscape:connector-curvature="0"
   style="fill:#ffe6d5;stroke-width:0.54840386" />
<g
   aria-label="LB"
   transform="matrix(0.54040104,0,0,0.54040104,-16.789315,-36.256305)"
   style="font-style:normal;font-weight:normal;font-size:40px;line-height:1.25;font-family:sans-serif;letter-spacing:0px;word-spacing:0px;fill:#000000;fill-opacity:1;stroke:#00c2ff;stroke-width:0.91270936;stroke-miterlimit:4;stroke-dasharray:none;stroke-opacity:1"
   id="flowRoot834"><path
     d="M 90.043068,168.98411 H 109.0724 v -11.264 h -1.36533 c 0,9.728 0,9.89867 -3.92534,9.89867 h -7.850662 v -56.91734 h 3.84 v -1.36533 h -9.728 v 1.36533 h 3.84 v 56.91734 h -3.84 z"
     style="font-style:normal;font-variant:normal;font-weight:100;font-stretch:normal;font-size:85.33333588px;font-family:Emberly;-inkscape-font-specification:'Emberly, Thin';font-variant-ligatures:normal;font-variant-caps:normal;font-variant-numeric:normal;font-feature-settings:normal;text-align:start;writing-mode:lr-tb;text-anchor:start;fill:#ffffff;stroke:#00c2ff;stroke-width:0.91270936;stroke-miterlimit:4;stroke-dasharray:none;stroke-opacity:1"
     id="path821"
     inkscape:connector-curvature="0" /><path
     d="m 111.71771,168.98411 h 13.056 c 5.46133,0 10.24,-4.52267 10.24,-13.65333 v -4.01067 c 0,-9.64267 -6.4,-13.056 -8.96,-13.056 2.56,-0.0853 8.448,-3.66934 8.448,-10.752 v -5.97334 c 0,-5.71733 -2.816,-12.20266 -9.55733,-12.20266 h -13.22667 v 1.36533 h 3.84 v 57.25867 h -3.84 z m 5.888,-31.40267 v -26.88 h 7.33867 c 5.632,0 7.50933,5.376 7.50933,10.83733 v 5.888 c 0,7.25334 -5.29067,10.15467 -8.53333,10.15467 z m 15.36,17.74934 c 0,8.96 -3.84,12.62933 -8.192,12.62933 h -7.168 v -29.01334 h 6.31467 c 3.24266,0 9.04533,2.56 9.04533,12.37334 z"
     style="font-style:normal;font-variant:normal;font-weight:100;font-stretch:normal;font-size:85.33333588px;font-family:Emberly;-inkscape-font-specification:'Emberly, Thin';font-variant-ligatures:normal;font-variant-caps:normal;font-variant-numeric:normal;font-feature-settings:normal;text-align:start;writing-mode:lr-tb;text-anchor:start;fill:#ffffff;stroke:#00c2ff;stroke-width:0.91270936;stroke-miterlimit:4;stroke-dasharray:none;stroke-opacity:1"
     id="path823"
     inkscape:connector-curvature="0" /></g></svg>